<?xml version="1.0" encoding="utf-8"?>
<svg width="199px" height="199px" viewbox="0 0 199 199" version="1.1" xmlns:xlink="http://www.w3.org/1999/xlink" xmlns="http://www.w3.org/2000/svg">
  <defs>
    <filter id="filter_1">
      <feColorMatrix in="SourceGraphic" type="matrix" values="0 0 0 0 1 0 0 0 0 0.8 0 0 0 0 0 0 0 0 1 0" />
    </filter>
    <path d="M0 0L199 0L199 199L0 199L0 0Z" id="path_1" />
    <clipPath id="mask_1">
      <use xlink:href="#path_1" />
    </clipPath>
  </defs>
  <g id="8SnKta01">
    <path d="M0 0L199 0L199 199L0 199L0 0Z" id="Background" fill="none" fill-rule="evenodd" stroke="none" />
    <g clip-path="url(#mask_1)">
      <g id="Group" transform="translate(3.5819702 11.940002)" filter="url(#filter_1)">
        <path d="M4.78857 22.885C2.00257 35.422 -0.18643 45.77 0.0125711 45.77C0.211572 45.77 9.96257 35.422 21.7036 22.885L43.1956 0L26.4796 0L9.96257 0L4.78857 22.885L4.78857 22.885ZM30.8576 6.56699C30.8576 6.766 25.8826 11.94 19.9126 17.91C9.16656 28.457 8.96756 28.656 9.76356 22.885C11.7536 7.36299 12.7486 5.97 22.1016 5.97C26.8776 5.97 30.8576 6.169 30.8576 6.56699L30.8576 6.56699Z" transform="translate(51.130463 0)" id="Shape" fill="#000000" fill-rule="evenodd" stroke="none" />
        <path d="M16.716 17.313C25.87 27.064 35.82 37.412 38.805 40.596L44.178 46.168L39.402 26.666C36.815 15.721 34.626 5.37299 34.626 3.38299C34.626 0.397994 32.437 0 17.313 0L0 0L16.716 17.313L16.716 17.313ZM30.248 7.36297C31.243 9.35297 32.636 14.925 33.432 19.9L34.825 28.855L23.681 17.91C13.134 7.56196 12.935 6.96497 17.114 5.57196C25.074 3.38297 28.457 3.78097 30.248 7.36297L30.248 7.36297Z" transform="translate(97.11197 0)" id="Shape" fill="#000000" fill-rule="evenodd" stroke="none" />
        <path d="M47.163 2.41324C45.969 4.00523 35.024 15.9452 22.487 29.0792L0 53.1582L19.502 53.1582L39.203 53.1582L44.576 26.8902C47.561 12.3632 49.75 0.423241 49.551 0.0252314C49.153 -0.173766 48.158 0.821234 47.163 2.41324L47.163 2.41324ZM41.591 20.1243C40.994 21.7163 39.402 28.2833 38.009 35.0493C35.422 48.1833 36.218 47.5863 19.9 47.9843C15.721 48.1833 12.537 47.5863 12.935 46.7903C13.134 45.9943 19.104 39.0293 26.069 31.2683C38.407 18.1343 43.979 13.9553 41.591 20.1243L41.591 20.1243Z" transform="translate(1.9899902 2.5617676)" id="Shape" fill="#000000" fill-rule="evenodd" stroke="none" />
        <path d="M0.0991569 1.18785C0.696148 3.77486 3.28315 15.9139 5.67115 28.0529L10.2482 50.5399L30.1482 50.5399L50.0482 50.5399L38.1082 38.0029C31.5411 31.2368 20.1982 19.0979 12.6361 11.1379C3.28315 1.18785 -0.696846 -1.99615 0.0991569 1.18785L0.0991569 1.18785ZM37.3121 44.5699C37.3121 45.3659 25.9691 45.5649 16.2181 44.7689C13.8301 44.5699 9.45214 27.4559 9.45214 19.0979C9.65113 14.1229 10.8451 14.9189 23.3821 28.6499C30.9441 36.8089 37.1131 43.9729 37.3121 44.5699L37.3121 44.5699Z" transform="translate(140.19583 5.1801453)" id="Shape" fill="#000000" fill-rule="evenodd" stroke="none" />
        <path d="M20.298 21.8929L0 44.1809L20.895 44.7779C32.238 44.9769 50.944 44.9769 62.486 44.7779L83.182 44.1809L63.083 22.2909C51.939 10.1519 42.387 0.201946 41.79 0.00293402C41.193 -0.196063 31.442 9.75394 20.298 21.8929L20.298 21.8929ZM57.312 22.4899C65.073 30.8479 71.441 38.2109 71.441 39.2059C71.441 40.0019 57.312 40.7979 40.198 40.9969L8.955 41.1959L13.731 35.8229C23.681 24.4799 40.596 7.36594 41.79 7.36594C42.586 7.36594 49.551 14.1319 57.312 22.4899L57.312 22.4899Z" transform="translate(54.326965 10.544067)" id="Shape" fill="#000000" fill-rule="evenodd" stroke="none" />
        <path d="M8.756 10.348C20.298 24.079 70.446 88.953 75.023 96.117C81.391 106.067 80.197 100.296 71.441 78.406C66.665 66.466 57.909 43.979 52.138 28.258L41.392 0L20.696 0L0 0L8.756 10.348L8.756 10.348ZM48.556 30.845C54.128 45.173 59.302 59.899 60.098 63.68C61.69 70.048 61.69 70.247 58.904 66.665C57.312 64.476 54.526 60.894 52.536 58.705C50.745 56.516 40.795 43.979 30.646 30.845C10.348 4.57698 10.348 4.57698 28.855 4.77597L38.606 4.97498L48.556 30.845L48.556 30.845Z" transform="translate(0 63.679993)" id="Shape" fill="#000000" fill-rule="evenodd" stroke="none" />
        <path d="M0.0442494 2.388C4.42225 12.139 41.4363 108.455 42.4313 112.435C43.0283 115.221 44.2223 117.41 45.0183 117.41C45.6153 117.41 48.9983 109.649 52.5803 99.898C57.7543 85.371 86.8083 10.547 90.3903 2.388C91.1863 0.596998 81.4353 0 45.2173 0C8.99925 0 -0.751754 0.596998 0.0442494 2.388L0.0442494 2.388ZM77.0572 5.17397C81.6343 6.16897 83.0272 7.36297 82.4303 9.75097C79.2462 19.9 46.2122 103.48 45.2172 103.48C44.2222 103.48 7.40724 10.348 7.40724 7.56197C7.40724 6.76596 8.99924 5.77096 10.9892 5.37297C16.3622 3.97997 69.8932 3.78096 77.0572 5.17397L77.0572 5.17397Z" transform="translate(50.700806 63.679993)" id="Shape" fill="#000000" fill-rule="evenodd" stroke="none" />
        <path d="M19.6664 47.163C-2.62155 105.669 -2.02456 103.878 2.55244 97.51C4.54244 94.923 21.4575 72.834 39.9644 48.755C58.6704 24.676 74.5904 3.781 75.5854 2.388C76.5804 0.596999 72.6004 0 57.4764 0L37.7754 0L19.6664 47.163L19.6664 47.163ZM64.4415 5.771C66.6305 6.965 65.8345 8.955 61.4565 14.129C56.8795 19.502 36.1835 46.168 26.6315 58.705C25.8355 59.7 22.8505 63.282 20.0645 66.665L15.0895 72.635L20.2635 58.705C26.8305 40.795 35.9845 16.517 38.7705 9.353C40.7605 4.378 41.7555 3.98 51.3075 3.98C57.0785 3.98 63.0485 4.776 64.4415 5.771L64.4415 5.771Z" transform="translate(112.66858 63.679993)" id="Shape" fill="#000000" fill-rule="evenodd" stroke="none" />
      </g>
    </g>
  </g>
</svg>